<svg id="Layer_1" data-name="Layer 1" xmlns="http://www.w3.org/2000/svg" viewBox="0 0 198.49 186.72"><defs><style>.cls-1{fill:#fff;}</style></defs><title>sb-logo-2</title><path class="cls-1" d="M135.33,164.86q0-2.79.35-6.21a20.82,20.82,0,0,1,1.58-6.21,12.37,12.37,0,0,1,3.59-4.73,9.81,9.81,0,0,1,6.38-1.92,19,19,0,0,1-.43,4.2c-.3,1.28-.65,2.57-1.05,3.85A37.3,37.3,0,0,0,144.7,158a23.94,23.94,0,0,0-.44,4.81A42.53,42.53,0,0,0,146,175.19a28.08,28.08,0,0,0,5.34,10.06,25,25,0,0,0,8.92,6.74A30.27,30.27,0,0,0,173,194.44a27.12,27.12,0,0,0,7.7-1.4,92.64,92.64,0,0,0,9.1-3.33q4.55-1.92,8.4-3.85t5.43-2.8a16,16,0,0,0,6.12-5.86,32.28,32.28,0,0,0,3.5-8.22,48.28,48.28,0,0,0,1.58-9.1q.35-4.65.35-8.32A59.21,59.21,0,0,0,214,139.92q-1.14-5.68-2.45-11.28t-2.45-11.2A57,57,0,0,1,208,106.06a28.63,28.63,0,0,1,6-9.89,43.44,43.44,0,0,1,9.45-7.7,52.48,52.48,0,0,1,11.46-5.16A50.27,50.27,0,0,1,246.81,81,20.75,20.75,0,0,1,254,84.1,10.48,10.48,0,0,1,257.4,88a5.79,5.79,0,0,1,.44,4,9.85,9.85,0,0,1-1.75,3.5c-1.28-2.8-2.95-4.67-5-5.6a12.1,12.1,0,0,0-6.82-.87,22.39,22.39,0,0,0-7.62,2.62,60.89,60.89,0,0,0-7.35,4.73,43.38,43.38,0,0,0-6.12,5.51,30.69,30.69,0,0,0-3.85,5,45.7,45.7,0,0,0,1.14,10.23q1.13,5,2.45,10t2.45,10a46.44,46.44,0,0,1,1.13,10.24,64.74,64.74,0,0,1-3.93,23,49.87,49.87,0,0,1-11.38,17.85,50.42,50.42,0,0,1-18,11.46,66.36,66.36,0,0,1-23.71,4,31.12,31.12,0,0,1-14.61-3.33,32.13,32.13,0,0,1-10.68-8.84A40.37,40.37,0,0,1,137.61,179,45.52,45.52,0,0,1,135.33,164.86Z" transform="translate(-135.33 -81.03)"/><path class="cls-1" d="M256.3,267.75a36.88,36.88,0,0,0-7-.78q-3.86-.09-7.88-.44a63.87,63.87,0,0,1-7.78-1.14,18,18,0,0,1-6.48-2.62,11.53,11.53,0,0,1-4.11-5q-1.41-3.15-.7-8.23l-.88-2.62c-.47-1.4-1-2.86-1.49-4.38s-1-2.91-1.48-4.2a10.06,10.06,0,0,1-.7-2.45,3.74,3.74,0,0,1,.52-2.45,7.9,7.9,0,0,1,1.75-2.1,11.43,11.43,0,0,1,2.28-1.48,8.11,8.11,0,0,1,2.27-.79c.12.35.32,1.14.61,2.36a29.34,29.34,0,0,0,1.23,3.85A21.42,21.42,0,0,0,228.3,239c.7,1.1,1.4,1.66,2.1,1.66a2,2,0,0,0,1.4-.7,15.81,15.81,0,0,0,2-3.15c.88-1.63,2.07-4,3.59-7s3.55-7.06,6.12-12.08,5.81-11.25,9.72-18.72,8.72-16.4,14.43-26.78a39.26,39.26,0,0,1,5.69-6.74,122,122,0,0,1,9.63-8.57q5.5-4.47,11.9-9t12.6-8.22a96.18,96.18,0,0,1,11.64-6,24.25,24.25,0,0,1,8.92-2.28q1.4,0,3.24.09a2.48,2.48,0,0,1,2.36,2.19v1.49c0,.75,0,1.57.09,2.45s.09,1.69.09,2.45v1.48a30.64,30.64,0,0,1-2.1,11.64,36.57,36.57,0,0,1-5.6,9.45,64.36,64.36,0,0,1-8.14,8.23q-4.64,3.93-9.54,8.14a2.33,2.33,0,0,1-.09.52,2.79,2.79,0,0,0-.08.7,20.72,20.72,0,0,0,2.18,2.71,58.84,58.84,0,0,1,4.73,6.48,64,64,0,0,1,4.72,8.92,25.25,25.25,0,0,1,2.19,10.24,41.4,41.4,0,0,1-6.39,21.62,79,79,0,0,1-16.1,19,83.85,83.85,0,0,1-21.26,13.48A54.86,54.86,0,0,1,256.3,267.75Zm-16.1-16.1a3.87,3.87,0,0,0,1.92,3.59,10.61,10.61,0,0,0,4.38,1.4,27.62,27.62,0,0,0,5,.09c1.69-.12,2.88-.18,3.58-.18A58.14,58.14,0,0,0,275,253.32,48.45,48.45,0,0,0,290.78,244a60,60,0,0,0,11.81-14.44,91.93,91.93,0,0,0,8.31-18.72c0-.23,0-.79.09-1.67s.09-1.42.09-1.66q0-6.83-2-10.59a13,13,0,0,0-5.6-5.6A24.54,24.54,0,0,0,294.8,189q-5.07-.52-11.2-.87a9.94,9.94,0,0,1-4.38-4.38,3.5,3.5,0,0,1,.53-2.62,4.73,4.73,0,0,1,1.57-2.1A42,42,0,0,0,295.68,176a50,50,0,0,0,13.38-7.79A41.42,41.42,0,0,0,319,156.62a28.1,28.1,0,0,0,3.85-14.35q-6.48,0-13.74,4.47a84.93,84.93,0,0,0-14,10.85,111.33,111.33,0,0,0-12.16,13.56,105.23,105.23,0,0,0-8.4,12.6q-1.23,2.44-3.94,7.53t-6.12,11.55q-3.42,6.48-7.09,13.65t-7,13.65q-3.33,6.48-5.95,11.72l-3.85,7.7a3.19,3.19,0,0,0-.26,1A9.15,9.15,0,0,0,240.2,251.65Z" transform="translate(-135.33 -81.03)"/></svg>
