<svg id="Layer_1" data-name="Layer 1" xmlns="http://www.w3.org/2000/svg" viewBox="0 0 143.75 135.23"><defs><style>.cls-1{fill:#fff;}</style></defs><title>sb-logo</title><path class="cls-1" d="M135.33,141.75a44,44,0,0,1,.26-4.5,15,15,0,0,1,1.14-4.5,9,9,0,0,1,2.6-3.42,7.09,7.09,0,0,1,4.62-1.4,13.79,13.79,0,0,1-.31,3c-.22.93-.47,1.86-.76,2.79a28.71,28.71,0,0,0-.77,3,18,18,0,0,0-.31,3.49,30.62,30.62,0,0,0,1.27,9,20.39,20.39,0,0,0,3.86,7.29,18.14,18.14,0,0,0,6.47,4.88,21.73,21.73,0,0,0,9.18,1.78,19.45,19.45,0,0,0,5.58-1,67.25,67.25,0,0,0,6.59-2.41q3.3-1.38,6.09-2.78c1.85-.93,3.16-1.61,3.93-2a11.66,11.66,0,0,0,4.43-4.25,23.54,23.54,0,0,0,2.54-6,34.82,34.82,0,0,0,1.14-6.59c.16-2.23.25-4.24.25-6a43.65,43.65,0,0,0-.82-8.43c-.55-2.74-1.14-5.47-1.78-8.17s-1.22-5.41-1.77-8.11a41.2,41.2,0,0,1-.83-8.24A20.64,20.64,0,0,1,192.31,92a31.21,31.21,0,0,1,6.84-5.58,38,38,0,0,1,8.3-3.74A36,36,0,0,1,216.07,81a15.46,15.46,0,0,1,5.2,2.22,7.78,7.78,0,0,1,2.47,2.85,4.26,4.26,0,0,1,.32,2.92,7.27,7.27,0,0,1-1.27,2.53,7.77,7.77,0,0,0-3.61-4,8.68,8.68,0,0,0-5-.63,16,16,0,0,0-5.51,1.9,43,43,0,0,0-5.32,3.42,32.15,32.15,0,0,0-4.44,4,22.89,22.89,0,0,0-2.79,3.61,33.22,33.22,0,0,0,.83,7.42c.54,2.41,1.14,4.81,1.77,7.22s1.23,4.82,1.77,7.23a33.2,33.2,0,0,1,.83,7.41,46.81,46.81,0,0,1-2.85,16.67,36,36,0,0,1-8.24,12.93,36.55,36.55,0,0,1-13.06,8.3,48.05,48.05,0,0,1-17.17,2.91,22.63,22.63,0,0,1-10.58-2.4,23.22,23.22,0,0,1-7.74-6.41A29.45,29.45,0,0,1,137,152,33,33,0,0,1,135.33,141.75Z" transform="translate(-135.33 -81.03)"/><path class="cls-1" d="M222.94,216.26a27.44,27.44,0,0,0-5.07-.57q-2.79-.06-5.7-.31a47.52,47.52,0,0,1-5.64-.83,13,13,0,0,1-4.69-1.9,8.33,8.33,0,0,1-3-3.61,11,11,0,0,1-.51-6c-.08-.25-.29-.89-.63-1.9s-.7-2.07-1.08-3.17-.74-2.11-1.08-3a7.13,7.13,0,0,1-.5-1.78,2.67,2.67,0,0,1,.38-1.77,5.47,5.47,0,0,1,1.26-1.52,9,9,0,0,1,1.65-1.08,6.24,6.24,0,0,1,1.65-.57c.08.26.23.83.44,1.71a20.77,20.77,0,0,0,.89,2.79,15.36,15.36,0,0,0,1.33,2.66c.51.81,1,1.21,1.52,1.21a1.47,1.47,0,0,0,1-.51,11.64,11.64,0,0,0,1.45-2.28c.64-1.18,1.5-2.87,2.6-5.07s2.58-5.11,4.44-8.75,4.2-8.15,7-13.56,6.32-11.87,10.46-19.39a28,28,0,0,1,4.12-4.88,87.11,87.11,0,0,1,7-6.21q4-3.24,8.62-6.53t9.12-6a68.83,68.83,0,0,1,8.43-4.3,17.63,17.63,0,0,1,6.47-1.65q1,0,2.34.06a1.79,1.79,0,0,1,1.71,1.59v1.07c0,.55,0,1.14.07,1.78s.06,1.22.06,1.77v1.08a22.26,22.26,0,0,1-1.52,8.43,26.83,26.83,0,0,1-4.06,6.84,45.9,45.9,0,0,1-5.89,6L260.71,152a1.69,1.69,0,0,1-.06.38,1.79,1.79,0,0,0-.07.51,15.09,15.09,0,0,0,1.59,2,44.78,44.78,0,0,1,3.42,4.69A46.5,46.5,0,0,1,269,166a18.23,18.23,0,0,1,1.59,7.41A30,30,0,0,1,266,189.08a57.16,57.16,0,0,1-11.66,13.75,61,61,0,0,1-15.4,9.76A39.71,39.71,0,0,1,222.94,216.26ZM211.28,204.6a2.79,2.79,0,0,0,1.39,2.6,7.68,7.68,0,0,0,3.17,1,20.66,20.66,0,0,0,3.61.07c1.23-.09,2.1-.13,2.6-.13a42.2,42.2,0,0,0,14.45-2.34,35.37,35.37,0,0,0,11.41-6.72,43.38,43.38,0,0,0,8.55-10.46,66.12,66.12,0,0,0,6-13.56q0-.25.06-1.2c0-.64.06-1,.06-1.21a16.42,16.42,0,0,0-1.46-7.67,9.43,9.43,0,0,0-4-4.05,17.65,17.65,0,0,0-6.28-1.71q-3.67-.39-8.11-.64a4.52,4.52,0,0,1-1.84-1.33,4.6,4.6,0,0,1-1.33-1.84,2.52,2.52,0,0,1,.38-1.9,3.52,3.52,0,0,1,1.15-1.52,30.23,30.23,0,0,0,10.39-2.22,36.07,36.07,0,0,0,9.69-5.64,30,30,0,0,0,7.17-8.36,20.48,20.48,0,0,0,2.78-10.39,19.12,19.12,0,0,0-10,3.23A61.79,61.79,0,0,0,251,136.48a79.5,79.5,0,0,0-8.8,9.82,76.87,76.87,0,0,0-6.09,9.12q-.88,1.79-2.85,5.45c-1.31,2.46-2.79,5.24-4.44,8.37s-3.35,6.42-5.13,9.89-3.46,6.76-5.07,9.88-3,6-4.31,8.49l-2.79,5.58a2.52,2.52,0,0,0-.19.76A7.11,7.11,0,0,0,211.28,204.6Z" transform="translate(-135.33 -81.03)"/></svg>
